<?xml version="1.0" encoding="UTF-8"?>
<svg width="852px" height="1096px" viewBox="0 0 852 1096" version="1.1" xmlns="http://www.w3.org/2000/svg" xmlns:xlink="http://www.w3.org/1999/xlink">
    <title>alta</title>
    <g id="Page-1" stroke="none" stroke-width="1" fill="none" fill-rule="evenodd">
        <g id="alta">
            <path d="M425.50107,2.5 C542.308394,2.5 648.058202,49.8636978 724.606099,126.440429 C801.153988,203.017152 848.5,308.806878 848.5,425.659208 C848.5,765.577623 464.779218,1080.23315 464.779157,1080.2332 C453.978032,1089.09813 439.731892,1093.5 425.5,1093.5 C411.268108,1093.5 397.021968,1089.09813 386.220782,1080.23315 C386.220782,1080.23315 2.5,765.577623 2.5,425.659208 C2.5,308.807026 49.8464267,203.017423 126.394676,126.440724 C202.943131,49.8638198 308.693594,2.5 425.50107,2.5 Z" id="fondo" stroke="#000000" stroke-width="5" fill="#417505" fill-rule="nonzero"></path>
            <path d="M426.5,97.5 C516.928606,97.5 598.928236,134.285959 658.320957,193.678087 C717.713674,253.07021 754.5,335.069012 754.5,425.496706 C754.5,515.925686 717.714277,597.927176 658.3209,657.321147 C598.9292,716.71344 516.930608,753.5 426.5,753.5 C336.068936,753.5 254.069969,716.714716 194.678195,657.323535 C135.285348,597.931282 98.5,515.931809 98.5,425.503294 C98.5,335.075135 135.286701,253.074316 194.679948,193.680476 C254.072595,134.287235 336.07185,97.5 426.5,97.5 Z" id="ligth" stroke="#4A4A4A" stroke-width="3" fill="#FFFFFF" fill-rule="nonzero"></path>
            <polyline id="Path-2" stroke="#417505" stroke-width="50" stroke-linecap="round" stroke-linejoin="round" transform="translate(426.500000, 425.500000) rotate(-180.000000) translate(-426.500000, -425.500000) " points="294 539 479.839252 312 559 396.522574"></polyline>
        </g>
    </g>
</svg>