<?xml version="1.0" encoding="UTF-8"?>
<svg width="691px" height="148px" viewBox="0 0 691 148" version="1.1" xmlns="http://www.w3.org/2000/svg" xmlns:xlink="http://www.w3.org/1999/xlink">
    <!-- Generator: Sketch 55.2 (78181) - https://sketchapp.com -->
    <title>Logo</title>
    <desc>Created with Sketch.</desc>
    <g id="Page-1" stroke="none" stroke-width="1" fill="none" fill-rule="evenodd">
        <g id="Logo">
            <path d="M87.8817262,27.32 L87.8817251,97.9891622 C87.8817251,114.224574 83.6930516,126.368481 75.3155789,134.421245 C66.9381062,142.47401 56.1904245,146.500331 43.0722114,146.500331 C26.7069159,146.500331 12.4199675,140.201086 0.2109375,127.602406 L15.9916793,105.782121 C24.174327,114.614185 32.7464961,119.030151 41.7084436,119.030151 C45.9945924,119.030151 49.6637406,117.374164 52.7159981,114.06214 C55.7682556,110.750116 57.2943614,105.782154 57.2943614,99.1581061 L57.2943614,59.69 L87.8817262,27.32 Z M205.807531,75.9740534 L236.394895,75.9740534 L236.394895,124.290399 C222.887032,139.356861 204.184117,146.889979 180.285591,146.889979 C160.283563,146.889979 143.496398,140.26603 129.923594,127.017934 C116.350789,113.769838 109.564489,97.047614 109.564489,76.8507612 C109.564489,56.6539084 116.48067,39.8018033 130.313242,26.2939404 C144.145813,12.7860774 160.835566,6.03224726 180.383003,6.03224726 C199.930439,6.03224726 216.912425,12.4613741 231.329471,25.3198205 L215.54873,48.1142253 C209.444215,42.7890101 203.826846,39.119862 198.696456,37.1066709 C193.566066,35.0934797 188.013638,34.0868993 182.039006,34.0868993 C170.479393,34.0868993 160.738292,38.0158101 152.81541,45.8737496 C144.892529,53.7316891 140.931148,64.0897267 140.931148,76.9481732 C140.931148,89.8066197 144.730178,100.099717 152.328351,107.827773 C159.926523,115.555829 168.985748,119.419799 179.506295,119.419799 C190.026842,119.419799 198.793833,117.406638 205.807531,113.380256 L205.807531,75.9740534 Z M341.015748,130.135118 C329.196368,141.305081 315.331533,146.889979 299.420829,146.889979 C283.510126,146.889979 270.359639,141.986958 259.968975,132.180769 C249.578311,122.37458 244.383057,109.224094 244.383057,92.728915 C244.383057,76.2337362 249.675722,63.1157199 260.261211,53.3744726 C270.8467,43.6332252 283.34778,38.7626746 297.764826,38.7626746 C312.181872,38.7626746 324.423189,43.1136998 334.489145,51.8158808 C344.5551,60.5180617 349.588002,72.4671459 349.588002,87.6634917 L349.588002,103.249409 L273.217005,103.249409 C274.126188,108.964275 277.113459,113.640003 282.178908,117.276736 C287.244357,120.913468 292.959136,122.731807 299.323417,122.731807 C309.584198,122.731807 318.026486,119.289951 324.650534,112.406136 L341.015748,130.135118 Z M312.961096,67.9862705 C308.934713,64.6093047 304.031692,62.9208472 298.251886,62.9208472 C292.472079,62.9208472 287.179414,64.6742454 282.373732,68.1810945 C277.56805,71.6879435 274.775601,76.4286127 273.996301,82.4032444 L319.974759,82.4032444 C319.325342,76.1688462 316.987478,71.3632362 312.961096,67.9862705 Z M454.091672,130.135118 C442.272292,141.305081 428.407458,146.889979 412.496754,146.889979 C396.58605,146.889979 383.435563,141.986958 373.044899,132.180769 C362.654235,122.37458 357.458982,109.224094 357.458982,92.728915 C357.458982,76.2337362 362.751646,63.1157199 373.337135,53.3744726 C383.922624,43.6332252 396.423704,38.7626746 410.84075,38.7626746 C425.257796,38.7626746 437.499113,43.1136998 447.565069,51.8158808 C457.631024,60.5180617 462.663927,72.4671459 462.663927,87.6634917 L462.663927,103.249409 L386.292929,103.249409 C387.202113,108.964275 390.189384,113.640003 395.254832,117.276736 C400.320281,120.913468 406.03506,122.731807 412.399342,122.731807 C422.660122,122.731807 431.10241,119.289951 437.726458,112.406136 L454.091672,130.135118 Z M426.03702,67.9862705 C422.010638,64.6093047 417.107617,62.9208472 411.32781,62.9208472 C405.548003,62.9208472 400.255338,64.6742454 395.449656,68.1810945 C390.643974,71.6879435 387.851525,76.4286127 387.072225,82.4032444 L433.050683,82.4032444 C432.401266,76.1688462 430.063402,71.3632362 426.03702,67.9862705 Z M547.394287,40.32 L569.777308,40.3061666 L499.603221,115.525103 L499.603221,145.331388 L470.379625,145.331388 L470.379625,100.5019 L470.379625,87.3950939 L470.379625,77.3114313 L470.379625,0.772 L499.603221,0.772 L499.603221,58.7333181 L499.603221,74.9999335 L532.138824,40.3212664 L547.393115,40.3212664 L547.394287,40.32 Z M650.338041,137.538429 C642.739868,143.772827 633.096177,146.889979 621.406681,146.889979 C613.613683,146.889979 605.496098,145.493755 597.053684,142.701264 C588.61127,139.908773 581.013211,135.78504 574.259279,130.329942 L587.117661,112.016488 C598.027858,120.458903 609.652239,124.680046 621.991153,124.680046 C625.757768,124.680046 628.745039,123.933229 630.953055,122.439571 C633.161071,120.945913 634.265063,118.965222 634.265063,116.49744 C634.265063,114.029657 632.738957,111.756733 629.686699,109.678601 C626.634442,107.600468 622.218476,105.652248 616.438669,103.833881 C610.658863,102.015515 606.242897,100.456939 603.190639,99.1581061 C600.138382,97.8592731 596.664056,95.9759935 592.767557,93.5082109 C584.844676,88.5726456 580.883294,81.2668196 580.883294,71.590514 C580.883294,61.9142083 584.779735,54.0239163 592.572733,47.9194013 C600.365731,41.8148863 610.431535,38.7626746 622.770448,38.7626746 C635.109362,38.7626746 647.44809,42.9188778 659.787003,51.2314089 L648.876861,70.7138061 C639.78503,64.4794078 630.725806,61.3622554 621.698917,61.3622554 C612.672027,61.3622554 608.15865,63.8300011 608.15865,68.7655664 C608.15865,71.4931156 609.587345,73.6361579 612.444778,75.1947575 C615.30221,76.753357 620.04288,78.5716959 626.666928,80.6498287 C633.290976,82.7279615 637.999175,84.319008 640.791666,85.423016 C643.584157,86.527024 646.928602,88.2479519 650.8251,90.5858513 C658.098565,95.0018834 661.735243,102.37265 661.735243,112.698372 C661.735243,123.024094 657.936213,131.30403 650.338041,137.538429 Z M538.817551,98 L570.519147,145.331388 L535.84048,145.331388 L518.531862,119.792256 L538.817551,98 Z M16.9657991,35.2558431 L16.9657991,9.14943081 L81.8,9.14943081 L57.2943614,35.2558431 L16.9657991,35.2558431 Z M677.75,122 C684.7,122 690.4,127.75 690.4,134.8 C690.4,141.9 684.7,147.65 677.75,147.65 C670.75,147.65 665,141.9 665,134.8 C665,127.75 670.75,122 677.75,122 Z M677.75,144.5 C682.95,144.5 687.1,140.35 687.1,134.8 C687.1,129.3 682.95,125.15 677.75,125.15 C672.45,125.15 668.35,129.35 668.35,134.8 C668.35,140.3 672.45,144.5 677.75,144.5 Z M681,136.5 L684.3,141.1 L680.45,141.1 L677.6,137.35 L676.2,137.35 L676.2,141.1 L672.7,141.1 L672.7,128.55 L677.9,128.55 C680.75,128.55 682.95,130.2 682.95,132.95 C682.95,134.5 682.2,135.75 681,136.5 Z M676.2,131.6 L676.2,134.35 L677.9,134.35 C678.75,134.35 679.35,133.8 679.35,133 C679.35,132.15 678.75,131.6 677.9,131.6 L676.2,131.6 Z" id="JGeeks" fill="#000000"/>
            <path d="M94.4427326,126.214733 C96.7575894,123.899876 99.5943812,122.742465 102.953193,122.742465 C106.312005,122.742465 109.148797,123.899876 111.463653,126.214733 C113.77851,128.529589 114.935921,131.366381 114.935921,134.725193 C114.935921,138.084005 113.77851,140.920797 111.463653,143.235653 C109.148797,145.55051 106.312005,146.707921 102.953193,146.707921 C99.5943812,146.707921 96.7575894,145.55051 94.4427326,143.235653 C92.1278758,140.920797 90.9704648,138.084005 90.9704648,134.725193 C90.9704648,131.366381 92.1278758,128.529589 94.4427326,126.214733 Z" id="." fill="#FDAB00"/>
        </g>
    </g>
</svg>