<?xml version="1.0" encoding="UTF-8"?>
<svg width="852px" height="1096px" viewBox="0 0 852 1096" version="1.1" xmlns="http://www.w3.org/2000/svg" xmlns:xlink="http://www.w3.org/1999/xlink">
    <title>positivo-hospitalizado</title>
    <g id="Page-1" stroke="none" stroke-width="1" fill="none" fill-rule="evenodd">
        <g id="positivo-hospitalizado">
            <path d="M425.50107,2.5 C542.308394,2.5 648.058202,49.8636978 724.606099,126.440429 C801.153988,203.017152 848.5,308.806878 848.5,425.659208 C848.5,765.577623 464.779218,1080.23315 464.779157,1080.2332 C453.978032,1089.09813 439.731892,1093.5 425.5,1093.5 C411.268108,1093.5 397.021968,1089.09813 386.220782,1080.23315 C386.220782,1080.23315 2.5,765.577623 2.5,425.659208 C2.5,308.807026 49.8464267,203.017423 126.394676,126.440724 C202.943131,49.8638198 308.693594,2.5 425.50107,2.5 Z" id="fondo" stroke="#000000" stroke-width="5" fill="#D0021B" fill-rule="nonzero"></path>
            <path d="M425.5,97.5 C515.928606,97.5 597.928236,134.285959 657.320957,193.678087 C716.713674,253.07021 753.5,335.069012 753.5,425.496706 C753.5,515.925686 716.714277,597.927176 657.3209,657.321147 C597.9292,716.71344 515.930608,753.5 425.5,753.5 C335.068936,753.5 253.069969,716.714716 193.678195,657.323535 C134.285348,597.931282 97.5,515.931809 97.5,425.503294 C97.5,335.075135 134.286701,253.074316 193.679948,193.680476 C253.072595,134.287235 335.07185,97.5 425.5,97.5 Z" id="ligth" stroke="#4A4A4A" stroke-width="3" fill="#FFFFFF" fill-rule="nonzero"></path>
            <g id="Group" transform="translate(272.000000, 272.000000)" stroke="#D0021B" stroke-linecap="round" stroke-linejoin="round" stroke-width="50">
                <line x1="0" y1="153" x2="305.819992" y2="153" id="Path-3"></line>
                <line x1="1.60852558e-05" y1="153.000016" x2="305.819976" y2="153.000016" id="Path-3" transform="translate(152.909996, 153.000016) rotate(90.000000) translate(-152.909996, -153.000016) "></line>
            </g>
        </g>
    </g>
</svg>